<svg xmlns="http://www.w3.org/2000/svg" width="1924.331" height="950.251" viewBox="0 0 1924.331 950.251">
  <g id="Group_1477" data-name="Group 1477" transform="translate(2036.086 -2286.428)">
    <g id="Group_1476" data-name="Group 1476" transform="translate(-2035.581 2286.648)">
      <g id="Group_1339" data-name="Group 1339" transform="translate(1336.355 463.558)">
        <path id="Path_764" data-name="Path 764" d="M811.426,271.254c28.384,46.313-52.765,63.721-85.65,76.621-30.051,11.789-60.081,53.623-85.648,51.462-65.389-5.527-2.358-62.113-47.767-95.607-74.118-54.671,10.3-101.091,64.238-101.091S778.483,217.505,811.426,271.254Z" transform="translate(-563.239 -202.64)" fill="none" stroke="#84fea3" stroke-miterlimit="10" stroke-width="2" fill-rule="evenodd"/>
        <path id="Path_765" data-name="Path 765" d="M763.958,267.608c11.268,17.347,3.8,30.027-11.64,39.71-15.666,9.813-39.222,15.977-52.6,20.966-23.172,8.643-45.983,40.45-65.481,38.2-48.669-5.625-2.329-47.359-36.464-72.909-55.463-41.516,7.921-76.639,48.7-76.926C687.274,216.338,737.931,227.539,763.958,267.608Z" transform="translate(-549.64 -196.591)" fill="none" stroke="#84ebfe" stroke-miterlimit="10" stroke-width="0.813" fill-rule="evenodd"/>
        <path id="Path_766" data-name="Path 766" d="M716.492,263.969c8.469,11.732,6.4,21.2-3.892,28.84-10.443,7.725-28.727,12.414-38.933,15.891-16.241,5.537-31.532,24.833-45.311,24.932-31.582.225-2.3-32.605-25.16-50.215-36.81-28.353,5.542-52.185,33.157-52.761C664.009,230.043,697.449,237.592,716.492,263.969Z" transform="translate(-536.041 -190.548)" fill="none" stroke="#84ebfe" stroke-miterlimit="10" stroke-width="0.625" fill-rule="evenodd"/>
        <path id="Path_767" data-name="Path 767" d="M669.027,260.348c5.757,6.19,9,12.379,3.857,17.97-5.221,5.635-18.178,8.863-25.268,10.815-9.2,2.533-17.4,10.984-25.142,11.666-18.075,1.591-2.271-17.837-13.859-27.517-18.164-15.172,3.17-27.707,17.619-28.6C640.752,243.792,657.251,247.683,669.027,260.348Z" transform="translate(-522.445 -184.524)" fill="none" stroke="#84ebfe" stroke-miterlimit="10" stroke-width="0.438" fill-rule="evenodd"/>
        <path id="Path_768" data-name="Path 768" d="M633.369,264.363c0,3.546-7.448,5.741-11.607,5.741s-7.529-2.876-7.529-6.422,3.37-6.42,7.529-6.42S633.369,260.818,633.369,264.363Z" transform="translate(-509.048 -179.036)" fill="none" stroke="#87d2e5" stroke-miterlimit="10" stroke-width="0.5" fill-rule="evenodd"/>
      </g>
      <g id="Group_1340" data-name="Group 1340" transform="translate(1161.625 341.292)">
        <path id="Path_769" data-name="Path 769" d="M907.239,493.705c-15.435,19.432-41.113,33.921-71.626,40.532-45.768,9.917-112.458,17.24-169.6-4.485-98.177-37.328-62.251-61-125.367-108.071s-78-71.164-45.273-135.73S518.748,257.09,565.5,185.679s96.007-75.708,147.7-62.548c61.8,15.733,214.492,158.2,346.363,49.4,66.4-54.793,211.885,44.907,174.485,113.426s17.217,154.088-66.936,143.732S1055.369,428.643,990.115,440C951.3,446.762,923.443,473.3,907.239,493.705Z" transform="translate(-478.528 -117.266)" fill="none" stroke="#87d2e5" stroke-miterlimit="10" stroke-width="1" fill-rule="evenodd"/>
        <path id="Path_770" data-name="Path 770" d="M587.754,185.779c45.717-51.343,82.5-55.68,126.258-44.559,21.087,5.358,48.18,25.569,81.506,43.541,54.621,29.457,144.048,48.188,213.2,13.085,86.632-43.981,159.836,36.939,132.3,94.507-11.968,25.015.545,34.765-2.609,57.282-4.142,29.58-19.552,54.959-60.219,58.3-69.347,5.69-93.024,8.709-138.568,18.612-3.7.815-7.531,1.648-11.514,2.492-31.7,6.7-55.222,28.393-70.083,45.3-13.911,15.828-35.515,27.846-61.113,33.537-37.79,8.374-91.335,13.705-137.483-3.409-77.445-28.947-54-48.539-104.059-85.884-25.6-19.116-41.344-36.32-50.3-53.869-11.563-22.619-11.551-46.942,2.653-80.609,15.412-36.532,20.4-43.751,34.645-58.262C552.079,215.944,569.483,206.3,587.754,185.779Z" transform="translate(-459.219 -109.081)" fill="none" stroke="#87d2e5" stroke-miterlimit="10" stroke-width="0.859" fill-rule="evenodd"/>
        <path id="Path_771" data-name="Path 771" d="M610.365,185.887c41.674-31.339,69.007-35.651,104.821-26.57,18.283,4.633,40.408,19.43,66.909,32.479,45.676,22.5,114.942,44.108,178.693,21.469,48.516-17.228,175.475-41.523,87.554,85.5-11.225,16.215-11.236,34.6-14.459,52.091-3.471,18.835-9.841,31.03-35.864,39.557-32.924,10.79-69.885,12.325-104.064,20.412-33.968,8.037-64.186,23.755-84.8,44.157-12.353,12.229-29.915,21.771-50.6,26.543-29.812,6.83-70.283,10.267-105.367-2.333-19.119-6.866-36.035-15.478-47.872-28.115-27.693-29.57-64.223-55.8-80.461-89.735-11.1-23.147-14.276-48.2-4.449-79.07,10.28-32.294,16.332-45.907,32.939-61.974C565.933,208.117,590.2,201.052,610.365,185.887Z" transform="translate(-440.269 -100.905)" fill="none" stroke="#87d2e5" stroke-miterlimit="10" stroke-width="0.719" fill-rule="evenodd"/>
        <path id="Path_772" data-name="Path 772" d="M616.327,186.238c28.671-9.856,61.593-13.546,93.365-8,44.046,7.685,79.041,31.468,122.382,40.887,30.121,6.546,64.551,6.311,89.5,19.732,20.144,10.835,29.948,28.741,33.211,46.288,3.643,19.589.223,39.79-9.859,58.257-8.638,15.822-23.118,30.983-44.921,38.543-18.871,6.543-41.026,6.714-60.789,11.834-41.334,10.707-65.646,40.846-104.117,55.838-111.248,43.352-192.137-72.04-201.17-131.329-5.5-36.09.485-82.138,38.071-109.429A169.723,169.723,0,0,1,616.327,186.238Z" transform="translate(-421.525 -92.037)" fill="none" stroke="#87d2e5" stroke-miterlimit="10" stroke-width="0.578" fill-rule="evenodd"/>
        <path id="Path_773" data-name="Path 773" d="M750.165,396.775c-13.232,7.453-25.119,16.028-38.718,23.157-13.8,7.234-29.942,13.041-47.219,13.465-16.891.415-33.44-4.43-46.74-11.672-31.227-17-44.469-45.138-54.133-71.861-7.407-20.489-13.706-41.3-14.882-62.412-1.99-35.762,11.8-80.215,65.609-94.5,60.632-16.091,133.954,8.451,184.988,30.219,22.52,9.607,44.273,20.688,60.16,35.355s25.422,33.4,21.171,51.511c-4.965,21.148-27.555,38.324-52.5,50.941s-53.12,22.028-77.158,35.467Z" transform="translate(-404.394 -86.799)" fill="none" stroke="#87d2e5" stroke-miterlimit="10" stroke-width="0.438" fill-rule="evenodd"/>
      </g>
      <g id="Group_1341" data-name="Group 1341" transform="translate(99.64 631.141)">
        <path id="Path_774" data-name="Path 774" d="M-36.332,389.713S46.626,288.962,205,329.107s40.222,96,228.766,99.49S423.715,569.976,692.7,638.048H-16.221Z" transform="translate(36.332 -319.657)" fill="none" stroke="#87d2e5" stroke-miterlimit="10" stroke-width="1" fill-rule="evenodd"/>
        <path id="Path_775" data-name="Path 775" d="M396.163,440.156c160.29,14.354-17.991,124.338,220.852,181.957H-12.459l-17.859-210.2s69.3-95.868,209.924-61.886S238.934,426.078,396.163,440.156Z" transform="translate(42.723 -309.684)" fill="none" stroke="#86ddd5" stroke-miterlimit="10" stroke-width="0.813" fill-rule="evenodd"/>
        <path id="Path_776" data-name="Path 776" d="M358.556,451.765C490.8,477.323,332.628,559.06,541.327,606.225H-8.7L-24.3,434.158S31.33,343.176,154.207,370.99,232.826,427.468,358.556,451.765Z" transform="translate(49.114 -299.76)" fill="none" stroke="#86e8c4" stroke-miterlimit="10" stroke-width="0.625" fill-rule="evenodd"/>
        <path id="Path_777" data-name="Path 777" d="M320.948,463.436c104.13,37.406-33.863,90.252,144.69,126.965H-4.94L-18.29,456.469s41.971-86.1,147.1-64.45S226.637,429.558,320.948,463.436Z" transform="translate(55.505 -289.897)" fill="none" stroke="#85f3b3" stroke-miterlimit="10" stroke-width="0.438" fill-rule="evenodd"/>
        <path id="Path_778" data-name="Path 778" d="M-12.275,478.858s28.306-81.217,115.687-65.73,116.083,19.342,179.928,62.06c74.918,50.124-41.8,73.21,106.609,99.47H-1.18Z" transform="translate(61.897 -280.115)" fill="none" stroke="#84fea3" stroke-miterlimit="10" stroke-width="0.25" fill-rule="evenodd"/>
      </g>
      <g id="Group_1342" data-name="Group 1342" transform="translate(166.792 784.057)">
        <path id="Path_779" data-name="Path 779" d="M78.134,499.194a2.812,2.812,0,0,1-.555.844c-3.383,3.563-12.192,1.968-17.027,1.3-7.675-1.063-15.115-1.451-22.929-1.932-4.591-.282-10.835.341-14.812-1.64-5.765-2.871-3.2-7.774,2.329-9.781,3.651-1.325,7.962-1.873,11.978-2.416C48.411,484.04,84.209,484.863,78.134,499.194Z" transform="translate(28.561 -401.116)" fill="none" stroke="#87d2e5" stroke-miterlimit="10" stroke-width="0.25" fill-rule="evenodd"/>
        <path id="Path_780" data-name="Path 780" d="M66.48,474.455c15.732,3.994,39.634,10.311,45.5,22.447,5.363,11.09-3.216,16.484-5.012,16.289-3.723-.405-70.719-.772-75.19-.772-15.047,0-19.558-19.507-18.387-25.788,2.638-14.146,34.22-16.257,49.58-13Q64.743,474.012,66.48,474.455Z" transform="translate(21.833 -406.614)" fill="none" stroke="#87d2e5" stroke-miterlimit="10" stroke-width="0.438" fill-rule="evenodd"/>
        <path id="Path_781" data-name="Path 781" d="M66.962,457.058a167.006,167.006,0,0,1,51.808,9.406c15.076,5.557,28.793,13.519,37.922,23.616a42.212,42.212,0,0,1,2.983,3.673c15.567,21.714-2.145,33.477-3.342,33.347-2.481-.271-130.783-.514-133.826-.514C8.76,526.585,8.209,506,7.7,499.746a36.645,36.645,0,0,1,6.45-24.581C24.178,461.326,45.112,456.678,66.962,457.058Z" transform="translate(15.827 -413.208)" fill="none" stroke="#87d2e5" stroke-miterlimit="10" stroke-width="0.625" fill-rule="evenodd"/>
        <path id="Path_782" data-name="Path 782" d="M61.11,443.258C107.542,438.71,181.415,460.645,206.8,492.8c25.5,32.294-1.073,50.468-1.673,50.4-1.24-.136-190.97-.258-192.461-.258-3.61,0-7.886-33.152-10-52.268-1.116-10.078,2.1-20.229,9.8-28.806A47.706,47.706,0,0,1,26.1,451.417C36.681,445.885,47.1,444.63,61.11,443.258Z" transform="translate(10.395 -419.42)" fill="none" stroke="#87d2e5" stroke-miterlimit="10" stroke-width="0.813" fill-rule="evenodd"/>
        <path id="Path_783" data-name="Path 783" d="M-3.776,475.808c0-10.308,3.309-38.8,60.269-47.665C117.8,418.6,219.283,450.16,255.111,493.6c35.364,42.875,0,67.462,0,67.462H4.013Z" transform="translate(3.776 -426.433)" fill="none" stroke="#87d2e5" stroke-miterlimit="10" stroke-width="1" fill-rule="evenodd"/>
      </g>
      <g id="Group_1343" data-name="Group 1343" transform="translate(35.286)">
        <path id="Path_784" data-name="Path 784" d="M11.133,72.554S1.721,157.41,89.465,143.277c147.949-23.832,135.746,10.54,197.6-52.129,50.17-50.832,45.894,43.446,118.372,40.612s73.388-17.122,112.572-16.353c78.713,1.542,91.857-16.243,91.873-44.837.064-119.667-336.924-258.5-494.11-155.781C17.245-20.825,11.133,72.554,11.133,72.554Z" transform="translate(150.814 121.046)" fill="none" stroke="#87d2e5" stroke-miterlimit="10" stroke-width="0.438" fill-rule="evenodd"/>
        <path id="Path_785" data-name="Path 785" d="M412.585,167.37c33.85,1.116,65.4-4.806,79.772-9.108,22.126-6.619,29.162-18.469,58.974-19.236,72.1-1.856,96.793-11.118,101.083-34.408a63.288,63.288,0,0,0,.386-17.168c-1.984-20.922-9.222-42.245-14.593-63.486-3.6-14.227-10.74-32.478-30.87-47.041-110.724-80.1-366.66-137.709-493.765-56.855C10.771-14.542,7.227,55.158,2.349,78.844.848,86.133-.1,92-.759,94.263c-2.257,7.748-12.492,93.94,85.916,72.553,155.3-33.752,159.291-3.828,216.128-49.411C346.4,81.222,346.8,165.2,412.585,167.37Z" transform="translate(136.994 121.954)" fill="none" stroke="#87d2e5" stroke-miterlimit="10" stroke-width="0.531" fill-rule="evenodd"/>
        <path id="Path_786" data-name="Path 786" d="M419.784,203.021c37.481,1.1,82.579-5.285,98.036-10.566,25.761-8.8,30-27.666,66.882-29.767,80.564-4.593,109.224-12.1,112.122-39.18a70.722,70.722,0,0,0-1.054-19.136c-3.979-23.09-11.126-45.423-6.37-70.3,2.646-13.829,3.824-37.353-19.42-53.5C554.727-99.513,251.227-161.917,111.419-74.614-18.991,6.822-4.618,80.144-8.521,99.092c-1.2,5.832-2.762,12.4-4.078,16.923-4.511,15.494-15.517,103.3,93.5,74.383,162.761-43.174,183.132-18.706,234.657-46.694C356.01,121.731,360.659,201.291,419.784,203.021Z" transform="translate(123.118 122.82)" fill="none" stroke="#87d2e5" stroke-miterlimit="10" stroke-width="0.625" fill-rule="evenodd"/>
        <path id="Path_787" data-name="Path 787" d="M427,238.7c41.1,2.5,99.738-5.8,116.3-12.024,29.356-11.037,30.855-36.777,74.788-40.3,89.047-7.142,121.685-13.071,123.16-43.95.332-6.919-.829-13.94-2.494-21.105-5.971-25.255-14.769-48.611,1.859-77.108,7.836-13.432,18.428-42.258-7.972-59.969C613.083-95.971,261.671-163.118,109.29-69.269-48.845,28.122-16.444,105.155-19.371,119.366c-.9,4.374-3.071,11.637-5.047,18.426C-31.184,161.033-42.859,250.667,76.671,214c170.387-52.262,208.622-34.033,253.184-43.978C367.179,161.7,374.637,235.514,427,238.7Z" transform="translate(109.223 123.662)" fill="none" stroke="#87d2e5" stroke-miterlimit="10" stroke-width="0.719" fill-rule="evenodd"/>
        <path id="Path_788" data-name="Path 788" d="M434.229,274.392c44.694,4.179,116.877-6.33,134.564-13.482,32.918-13.313,31.726-45.824,82.7-50.832,97.562-9.584,134.251-14.048,134.2-48.721.027-7.682-1.714-15.348-3.934-23.073-7.966-27.424-19.606-52.5,10.082-83.92,12.611-13.346,33.069-47.191,3.48-66.435C671.6-92.525,272.054-164.356,107.162-63.907-78.785,49.368-28.268,130.182-30.217,139.656c-.6,2.916-3.383,10.877-6.017,19.928-9.02,30.99-21.237,122.616,108.676,78.044,178.179-61.133,237.132-47.4,271.711-41.259C381.033,202.916,388.582,270.126,434.229,274.392Z" transform="translate(95.323 124.487)" fill="none" stroke="#87d2e5" stroke-miterlimit="10" stroke-width="0.813" fill-rule="evenodd"/>
        <path id="Path_789" data-name="Path 789" d="M441.452,310.117c48.169,6.258,134-6.874,152.827-14.941,36.447-15.617,32.613-54.825,90.6-61.362C790.99,221.853,831.6,218.786,830.123,180.321c-.3-8.445-2.6-16.756-5.375-25.042-9.959-29.591-24.839-57.076,18.31-90.731C860.423,51,890.8,12.4,857.985-8.35,730.217-89.137,282.227-165.732,105.036-58.516-109,70.427-40.092,155.24-41.067,159.978c-.3,1.458-3.69,10.117-6.984,21.43-11.275,38.738-23.91,132.481,116.26,79.874C254.34,191.427,331.465,203.1,358.451,222.741,392.076,247.218,402.427,305.048,441.452,310.117Z" transform="translate(81.425 125.281)" fill="none" stroke="#87d2e5" stroke-miterlimit="10" stroke-width="0.906" fill-rule="evenodd"/>
        <path id="Path_790" data-name="Path 790" d="M-51.92,180.273s-78.324,183.116,115.9,104.638,286.339-70.21,308.767-35.825c27.087,41.526,43.351,91.056,75.927,96.728,51.379,8.948,151.115-7.427,171.092-16.4,39.95-17.945,33.514-63.791,98.513-71.894,114.674-14.294,159.176-16.007,156.278-58.263S821.937,120.024,894.27,74.707C916.5,60.779,956.72,17.574,920.648-4.656,788.905-85.846,292.7-166.89,102.9-53.149-138.865,91.733-51.92,180.273-51.92,180.273Z" transform="translate(67.532 126.101)" fill="none" stroke="#87d2e5" stroke-miterlimit="10" stroke-width="1" fill-rule="evenodd"/>
      </g>
      <g id="Group_1344" data-name="Group 1344" transform="translate(224.467 63.702)">
        <path id="Path_791" data-name="Path 791" d="M463.139,66.872c-14.459,3.466-48.576,13.047-83.559,0-40.752-15.2-48.3-46.408-89.553-40.248-43.273,6.462-26.375,54.454-116.264,57.546C114.342,86.215,45.886,87.88,29.428,48.325c-13.894-33.391-3-53.2,67.191-76.974S365.03-78.9,370.438-76.4s185.4,97.886,162.2,124.336C518.146,64.461,498.951,58.291,463.139,66.872Z" transform="translate(-24.185 76.565)" fill="none" stroke="#84fea3" stroke-miterlimit="10" stroke-width="2" fill-rule="evenodd"/>
      </g>
      <g id="Group_1345" data-name="Group 1345" transform="translate(662.924 531.927)">
        <path id="Path_792" data-name="Path 792" d="M328.244,336.128a6.212,6.212,0,0,1-1.442,5.206,5.378,5.378,0,0,1-5.221,1.275,4.2,4.2,0,0,1-2.374-2.4,11.13,11.13,0,0,1-.893-6.654c.3-1.677,2.226-5.259,5.658-4.481a3.612,3.612,0,0,1,2.125,1.578A12.449,12.449,0,0,1,328.244,336.128Z" transform="translate(-150.261 -216.42)" fill="none" stroke="#87d2e5" stroke-miterlimit="10" stroke-width="0.25" fill-rule="evenodd"/>
        <path id="Path_793" data-name="Path 793" d="M356.428,331.255c4.631,12.03,7.58,30.036-7.075,30.934-4.874.3-8.036-2.215-11.545-4.112-8.277-4.475-19.381-3.277-27.18-8.422-12.242-8.076-1.613-19.07,8.993-24.895,8.871-4.872,24.554-13.544,32.326-2.518A45.145,45.145,0,0,1,356.428,331.255Z" transform="translate(-164.068 -221.637)" fill="none" stroke="#87d2e5" stroke-miterlimit="10" stroke-width="0.375" fill-rule="evenodd"/>
        <path id="Path_794" data-name="Path 794" d="M389.986,333.956a72.979,72.979,0,0,1-.138,15.666c-1.2,10.93,6.337,34.477-18.341,34.19-8.81-.1-13.335-5.133-19.032-8.941-14.635-9.784-35.523-6.137-50.824-15-10.472-6.068-12.566-16.9-6.867-25.234,5.107-7.471,16.361-13.237,25.744-17.9,12.7-6.313,33.6-17.678,50-11.317C383.953,310.63,388.745,322.529,389.986,333.956Z" transform="translate(-178.378 -227.406)" fill="none" stroke="#87d2e5" stroke-miterlimit="10" stroke-width="0.5" fill-rule="evenodd"/>
        <path id="Path_795" data-name="Path 795" d="M422.913,336.615c1.264,5.78,1.531,10.081.91,13.605-1.551,8.808-7.04,12.643-5.6,26.837.309,2.953.666,5.7.943,8.226,1.524,13.939.677,21.058-25.5,20.053-22.454-.875-24.375-22.3-55.013-25.068q-1.686-.152-3.486-.236c-17.628-.748-32.322-4.454-42.485-10.051-13.688-7.537-17.842-21.11-11.994-32.292,6.774-12.955,25.134-21.6,40.762-29.086,25.88-12.406,73.383-34.48,90.545,1.015C414.92,315.677,419.658,321.731,422.913,336.615Z" transform="translate(-192.809 -233.106)" fill="none" stroke="#87d2e5" stroke-miterlimit="10" stroke-width="0.625" fill-rule="evenodd"/>
        <path id="Path_796" data-name="Path 796" d="M455.467,339.36c1.45,7.617,1.458,13.134.505,17.615-2.415,11.362-9.893,15.985-8.1,34.391.373,3.792.825,7.308,1.176,10.535,1.955,17.946.939,26.8-33.527,25-29.564-1.554-31.346-30.43-71.612-33.847q-2.2-.191-4.559-.279c-23.137-.835-42.559-5.442-55.946-12.637-13.424-7.216-19.616-19.246-18.521-30.8,1.266-13.359,12.531-23.508,26.3-32.257a276.778,276.778,0,0,1,30.874-16.561c34.341-16.226,97.805-44.911,119.655,2.781C445.457,311.461,451.7,319.555,455.467,339.36Z" transform="translate(-206.99 -238.863)" fill="none" stroke="#87d2e5" stroke-miterlimit="10" stroke-width="0.75" fill-rule="evenodd"/>
        <path id="Path_797" data-name="Path 797" d="M488.272,342.087c1.638,9.458,1.384,16.187.1,21.625-3.286,13.914-12.745,19.328-10.6,41.944.441,4.634.984,8.919,1.411,12.845,2.384,21.954,1.2,32.548-41.546,29.949-36.678-2.236-38.331-38.517-88.212-42.629q-2.72-.226-5.633-.322c-28.644-.921-52.773-6.45-69.4-15.225-30.428-16.053-29.453-46.863-5.87-66.177,15.307-12.537,34.851-22.6,54.413-31.684,42.872-19.975,122.229-55.337,148.766,4.548C476.245,307.228,483.992,317.364,488.272,342.087Z" transform="translate(-221.448 -244.621)" fill="none" stroke="#87d2e5" stroke-miterlimit="10" stroke-width="0.875" fill-rule="evenodd"/>
        <path id="Path_798" data-name="Path 798" d="M240.785,344.872c7.931-16.183,26.462-29.89,45.653-41,12.155-7.038,25.016-13.479,38.192-19.561,51.4-23.725,146.651-65.762,177.874,6.316,5.361,12.371,14.618,24.552,19.406,54.19,6.524,40.39-16.87,37.887-13.409,75.133,3.368,36.226,12.193,54.053-47.924,50.048-45.375-3.02-45.364-49.824-111.516-51.773-43.147-1.272-102.034-13.385-111.1-47.657A35.9,35.9,0,0,1,240.785,344.872Z" transform="translate(-236.753 -250.38)" fill="none" stroke="#87d2e5" stroke-miterlimit="10" stroke-width="1" fill-rule="evenodd"/>
      </g>
      <g id="Group_1346" data-name="Group 1346" transform="translate(462.84 118.762)">
        <path id="Path_799" data-name="Path 799" d="M500.017,633.275C447.056,579.99,360.9,560.131,281.874,552.639c-44.195-2.552-88.538-20.008-108.686-48.735-24.8-35.363-5.056-72.223,34.187-96.764,20.736-12.966,44.228-21.753,70.989-26.98,58.178-11.364,123.317-21.694,171.882-48.381,22.526-12.379,21.881-28.536,35.849-44.386,13.048-14.8,36.466-21.861,58.947-27.577,28.4-7.222,52.282-7.4,82.154-4.013,24.079,2.73,48.11-6.33,60.372-20.943,35.059-41.778-9.026-91.622-17.483-133.816-3.048-15.213-1.6-32.851,20.1-40.97,12.591-4.71,25.728-9.837,33.5-18.5,5.208-5.8,7.764-12.449,11.555-18.7,4.022-6.638,9.874-12.537,15.911-18.358,31.427-30.3,84.489-30.5,145.932-30.736l4.981-.017c60,0,397.111,19.325,470.414,23.568,5.6,13.811,20.441,4.381,23.51,14.018-32.434,2.3-49.84,47.491-56.561,57.7-57.148,86.81-203.948,45.416-293.72,21.715-65.339-17.25-189.716,22.808-219.175,31.7-36.835,11.119-35.835,46.73-33.632,65.6,4.377,37.484-42.425,42.345-76.82,67.244-30.857,22.341-26.72,53.256-28.729,83.181-1.92,28.618-4.515,57.955-7.731,86.568-2.917,25.936-8.758,60.338-5.41,86.7,4.751,37.408,32.017,98.53-11.914,132.141C638.686,661.968,532.989,666.45,500.017,633.275Z" transform="translate(-115.878 43.249)" fill="none" stroke="#84ebfe" stroke-miterlimit="10" stroke-width="0.25"/>
        <path id="Path_800" data-name="Path 800" d="M698.86,456.587c-.6,17.352,1.988,34.965,9.758,51.522,7.824,16.674,24.051,29.843,32.821,46.117,19.958,37.035-12.114,79.98-53.658,103.207-25.361,14.179-57.922,22.545-90.017,25.427-68.113,6.118-117.793-30.836-164.1-62.389-42.846-29.2-76.909-51.6-151.443-60.862-27.161-3.374-52.668-6.519-76.882-16.961-55.226-23.813-59.172-80.733-31.027-120.751a216.809,216.809,0,0,1,13.292-17.462c17.652-20.348,54.475-30.4,85.8-36.46,26.505-5.128,53.18-11.8,80.064-16.8,25.534-4.74,52.26-7.754,74.8-17.993,9.614-4.368,17.25-10.307,21.264-17.844,5.683-10.668,12.677-17.184,18.609-27.8,8.593-15.381,31.365-24.986,51.88-31.636,23.657-7.67,49.964-14.039,76.393-12.763,24.835,1.2,54.7,5.372,74.112-8.556,13.129-9.418,17.9-26.9,18.385-39.012,1.161-28.724-13.168-51.926-23.754-85.207-3.682-11.574-3.917-24.663,1.966-36.065,5.505-10.671,20.115-16.822,32.976-22.828,11.452-5.348,21.264-12.434,27.576-21,6.955-9.446,12.508-18.91,21.59-27.594,33.046-31.6,84.1-32.16,145.569-32.426l5.113-.02c2.661,0,5.631.014,8.884.05,74.559.878,426.91,21.081,474.189,23.8,3.764,9.206,9.812,24.486,13.906,36.4-12.64,8.467-20.693,18.6-23.712,29.085-26.406,91.669-103.653,126.494-171.96,105.841-92.989-28.115-143.2-62.959-232.368-45.769-20.932,4.036-53.5,16.9-66.649,27.564-22.048,17.882-46,34.919-65.55,54.2-20.767,20.479-66.832,51.837-87.509,72.368-31.233,31.016-14.463,55.745-27.293,91.271C711.428,394.194,699.914,425.934,698.86,456.587Z" transform="translate(-121.243 41.812)" fill="none" stroke="#87d2e5" stroke-miterlimit="10" stroke-width="0.5" fill-rule="evenodd"/>
        <path id="Path_801" data-name="Path 801" d="M743.043,413.933c-.648,29.264,8.768,58.163,32.84,84.734,12.933,14.278,43.887,18.51,47.105,39.587,4.957,32.459-36.084,53.493-62.606,102.426-15.377,28.37-57.72,46.669-95.72,58.431-32.3,10-68.155,17.482-103.682,18.7-29.847,1.02-56.628-8.43-78.214-22.172-49.756-31.679-75.386-77.743-129.81-106.5-19.457-10.28-41.449-17.973-64.772-23.031-27.648-5.9-55.832-8.117-81.354-18.526-79.031-32.234-62.5-114.142-14.944-157.847,25.523-23.457,65.184-36.556,105.485-43.335,23.886-4.017,48.491-4.051,72.662-6.748,37.291-4.163,67.707-21.724,83.163-45.354,16.12-24.644,45.575-43.857,81.974-53.531A235.476,235.476,0,0,1,592.2,233.25c20.643-.271,45.243,6.44,63.938-2.131,36.637-16.8,27.231-55.069,18.966-80.08-8.391-25.384-28.467-67.031,1.671-89.171,9.253-6.8,21.972-10.573,31.5-17.184A60.954,60.954,0,0,0,727.134,24.57c4.571-8.266,11.085-15.629,18.583-22.8,34.4-32.9,90.2-34.345,151.193-34.643,1.174-.007,4.022-.019,5.2-.023,2.871-.009,5.9-.006,9.078.007,70.2.305,459.1,22.756,482.738,24.114,1.881,4.6,8.527,20.784,13.622,34.972a29.961,29.961,0,0,1-3.156,7.8c-.134,8.074-3.643,15.089-4.926,18.721-22.646,64.13-51.006,182.272-167.618,157.313-35.69-7.639-60.756-25.376-91-38.461-35.664-15.43-74.322-29.151-116.728-32.151C959.3,134.835,917.5,175.913,877.76,207.166c-35.334,27.789-63.357,55.786-84.382,89.661C770.042,334.43,743.968,372.138,743.043,413.933Z" transform="translate(-126.856 40.374)" fill="none" stroke="#87d2e5" stroke-miterlimit="10" stroke-width="0.75" fill-rule="evenodd"/>
        <path id="Path_802" data-name="Path 802" d="M311.159,575.865A127.648,127.648,0,0,0,285.4,571.6c-37.388-2.542-171.544-19.443-141.231-130.815,21.666-79.6,71.605-97.884,155.176-103.674s114.692-4.11,149.921-56.6c25.521-38.03,46.129-41.736,100.98-48.937,97.24-12.764,141-10.883,122.59-67.126-17.644-53.907-30.426-92.03,18.892-117.781,39.521-20.637,32.966-24.5,41.288-53.388,12.89-44.747,121.961-28.442,187.8-28.707S1412.109-11,1412.109-11s27.856,65.689,20.26,63.573-7.03,173.818-86.568,198.087c-56.653,17.284-93.177,6.1-185.632-51.092-91.83-56.8-178.478-41.842-215.385-4.636C907.16,232.86,868.929,284.34,839.756,326.484c-37.838,54.66-75.027,103.756-22.368,152.964,17.494,16.348,60.119,20.441,63.512,46.941,4.659,36.408-31.747,47.565-61.057,113.5-35.123,79.01-224.7,121-273.1,114.6C298.088,721.635,437.576,611.377,311.159,575.865Z" transform="translate(-139.751 38.118)" fill="none" stroke="#84fea3" stroke-miterlimit="10" stroke-width="2" fill-rule="evenodd"/>
      </g>
      <g id="Group_1347" data-name="Group 1347" transform="translate(0 365.957)">
        <path id="Path_803" data-name="Path 803" d="M64.623,224.048C211.6,137.422,369.836,94.707,379.52,183.794s58.134,69.117-13.465,139.364c-17.733,17.4-12.562,56.354-24.962,66-30.2,23.494-153.677-29.105-228.424-12.256C32.72,394.928,14.779,446.646-17.118,469.9s-102.168-146.148-47.1-224.656C-49.353,224.048-67.325,301.814,64.623,224.048Z" transform="translate(84.639 -134.489)" fill="none" stroke="#87d2e5" stroke-miterlimit="10" stroke-width="1" fill-rule="evenodd"/>
        <path id="Path_804" data-name="Path 804" d="M-45.028,250.231c9.911-14.131,4.284,35.915,102.292-19.358,17.71-9.989,35.944-19.334,54.046-27.991,95.105-45.593,183.513-62.156,196.347-7.072,14.721,63.178,45.659,53.159-2.279,103.641-12.716,13.392-10.474,41.182-19.713,49.347-24.694,21.817-120.619-9.91-181.684-2.7-64.621,7.635-96.343,49.01-117.607,64.513S-81.739,302.569-45.028,250.231Z" transform="translate(112.266 -122.998)" fill="none" stroke="#87d2e5" stroke-miterlimit="10" stroke-width="0.75" fill-rule="evenodd"/>
        <path id="Path_805" data-name="Path 805" d="M-25.836,255.294c4.957-7.066,11.891,15.411,75.741-17.522,12.729-6.565,26.169-12.929,39.7-19.275,66.243-31.207,128.2-45.633,146.185-10.595,19.053,37.115,33.6,37.476,8.907,67.918-7.657,9.439-8.284,26.082-14.465,32.691-18.979,20.3-87.445,9.4-134.942,6.864C46.116,312.751.5,343.656-10.135,351.408S-44.192,281.463-25.836,255.294Z" transform="translate(139.893 -111.583)" fill="none" stroke="#87d2e5" stroke-miterlimit="10" stroke-width="0.5" fill-rule="evenodd"/>
        <path id="Path_806" data-name="Path 806" d="M-6.645,292.3s59.419-20.134,93.251-7.55,75.57,2.6,88.2-16.424c8.927-13.446,22.51-29.538-10.874-48.234-25.422-14.237-58.648-2.7-96.027,14.118-42.12,18.956-74.551,26.245-74.551,26.245Z" transform="translate(167.52 -100.272)" fill="none" stroke="#87d2e5" stroke-miterlimit="10" stroke-width="0.25" fill-rule="evenodd"/>
      </g>
      <g id="Group_1348" data-name="Group 1348" transform="translate(533.074 430.582)">
        <path id="Path_807" data-name="Path 807" d="M601.322,184.444s-44.869-10.867-70.265,0c-43.636,18.675-32.935,56.407-101,82.324S124.782,328.413,182.875,400.5s88.478,42.768,182.894,65.634,114.787,49.128,141.136,67.422,40.513,25.49,86.638,22.555C641.76,553.043,655,531.7,652.88,497.34c-1.854-30.036-10.59-44.235-12.857-76.162-2.316-32.614,3.727-43.794,5.782-90.736C648.212,275.486,672.465,210.361,601.322,184.444Z" transform="translate(-173.801 -179.615)" fill="none" stroke="#84fea3" stroke-miterlimit="10" stroke-width="2" fill-rule="evenodd"/>
        <path id="Path_808" data-name="Path 808" d="M535.746,214.61c-22.955-1.193-46.594,5.969-65.337,15.158-25.323,12.414-29.119,21.668-73.074,38.4-62.4,23.76-246.573,48.3-199.346,116.225,32.968,47.416,65.795,38.146,152.357,59.111S456.839,487.529,480.995,504.3c14.422,10.015,32.893,15.107,52.92,16.779,21.266,1.774,47.875,3.451,61.007-11.066,13.83-15.291,3.765-35.866,2.5-52.463-1.386-18.205,1.285-36.4,2.065-54.585,1.966-45.872,7.543-90.019,2.756-135.962-2-19.15-17.619-38.818-43.091-47.87A82.439,82.439,0,0,0,535.746,214.61Z" transform="translate(-156.233 -164.548)" fill="none" stroke="#87d2e5" stroke-miterlimit="10" stroke-width="0.25" fill-rule="evenodd"/>
        <path id="Path_809" data-name="Path 809" d="M454.631,242.417c-32.254,7.258-61.08,21.009-90.58,32.24-56.742,21.6-183.678,33.576-151.511,98.716,10.736,21.745,40.3,36.231,119.012,55.294s101,36.21,122.97,51.459,37.794,20.369,75.442,14.413c49.5-7.834,23.956-56.145,28.685-79.016,3.424-16.565,12.881-32.466,13.585-49.322.856-20.547-1.357-37.971-4.315-58.423-2.484-17.16-6.326-37.035-19.368-52.065-16.848-19.417-52.089-20.456-80.729-15.846Q461.123,240.944,454.631,242.417Z" transform="translate(-138.102 -154.564)" fill="none" stroke="#87d2e5" stroke-miterlimit="10" stroke-width="1" fill-rule="evenodd"/>
      </g>
      <path id="Path_810" data-name="Path 810" d="M549.262-14.7c-6.1,1.412-31.21,58.969-90.213,75.921s-47.932,28.452-27.85,70.929c21.487,45.45,9.616,47.929,14.818,67.6,3.453,13.051,54.918,19.265,54.43-13.43-.175-11.731-26.74-69.4,35.919-89.572,58.5-18.83,184.2-63.281,285.228-27.767,153.978,54.131,280.881-52.536,231.59-74.592Z" transform="translate(615.719 167)" fill="none" stroke="#87d2e5" stroke-miterlimit="10" stroke-width="1" fill-rule="evenodd"/>
      <path id="Path_811" data-name="Path 811" d="M682.234-3.908c-3.669.4-24.232-2.934-60.158,2.8S564.45,4.662,521.924,27.424c-31.5,16.86-68.732,30.51-65.989,39.78,1.58,5.317,21.677,5.517,27.388,5.4,14.292-.284,27.924-4.656,39.853-9.826,24.036-10.416,45.482-21.833,71.7-29.708,27.093-8.134,55.915-13.81,85.431-15.3,34.457-1.741,69.044,2.69,99.889,13.607C838.44,51.994,963.052,12.55,938.023-3.276Z" transform="translate(658.936 171.402)" fill="none" stroke="#87d2e5" stroke-miterlimit="10" stroke-width="0.5" fill-rule="evenodd"/>
      <g id="Group_1349" data-name="Group 1349" transform="translate(974.912 680.981)">
        <path id="Path_812" data-name="Path 812" d="M1287.11,541.28s29.187-171.106-117.242-184.969S1069.01,409.334,944.223,459.717c-45,18.167-138.908,15.337-234.63-30.881-84.856-40.972-79.769,28.578-110.516,65.832C553.706,549.642,476.2,557.809,393,573.984s901.156,18.178,901.156,18.178Z" transform="translate(-388.008 -354.459)" fill="none" stroke="#87d2e5" stroke-miterlimit="10" stroke-width="0.25" fill-rule="evenodd"/>
        <path id="Path_813" data-name="Path 813" d="M1226.416,541.242c-1.4-2.429,50.054-133.766-81.686-157.451-105.188-18.911-104.852,32.658-165.451,76.629-9.138,6.631-20.66,12.259-35.032,16.9-43.058,13.8-128.541,6.238-216.3-26.509-4.1-1.531-8.071-2.821-11.867-3.958-66.981-20.067-70.607,22.658-105.365,52.53a175.847,175.847,0,0,1-20.852,15.861c-53.209,33.583-131.877,32.482-162.406,47.8-55.465,10.784,788.553,12.119,788.553,12.119Z" transform="translate(-348.864 -343.52)" fill="none" stroke="#87d2e5" stroke-miterlimit="10" stroke-width="0.5" fill-rule="evenodd"/>
        <path id="Path_814" data-name="Path 814" d="M1166.071,541.219c-2.8-4.856,70.861-95.087-46.132-129.931-81.931-24.4-99.979,27.932-143.947,68.831-7.395,6.878-17.838,11.676-31.371,14.815-41.121,9.428-118.375-2.7-197.962-22.139-3.822-.934-7.589-1.71-11.26-2.422-61.8-12-71.255,9.648-112.687,33.735-6.731,3.913-13.7,8.068-21.705,11.94-60.64,29.31-149.68,19.427-138.733,36.072-27.732,5.392,675.95,6.059,675.95,6.059Z" transform="translate(-310.068 -332.595)" fill="none" stroke="#87d2e5" stroke-miterlimit="10" stroke-width="0.75" fill-rule="evenodd"/>
        <path id="Path_815" data-name="Path 815" d="M1113.719,541.126c-4.2-7.285,89.955-54.34-10.575-102.413-59.762-28.578-94.083,23.639-122.442,61.036-23.164,30.544-119.816,1.485-217.995-5.925-64.363-4.856-74.1-1.552-142.572,22.96s-167.48,6.373-115.058,24.342Z" transform="translate(-279.268 -321.601)" fill="none" stroke="#87d2e5" stroke-miterlimit="10" stroke-width="1" fill-rule="evenodd"/>
      </g>
    </g>
  </g>
</svg>
