<svg xmlns="http://www.w3.org/2000/svg" width="40" height="36.444" viewBox="0 0 40 36.444">
  <path id="Path_8" data-name="Path 8" d="M2111.636,2194.963l-4.511-4.5.809-.809a1,1,0,0,0-1.413-1.413l-3.31,3.309-5.474-5.475a1,1,0,0,0-1.414,1.414l5.475,5.475-5.116,5.115-5.474-5.475a1,1,0,0,0-1.414,1.414l5.475,5.475-3.309,3.309a1,1,0,0,0,1.421,1.413l.809-.808,4.5,4.5a9.123,9.123,0,0,0,6.471,2.672,9.243,9.243,0,0,0,2.86-.466l2.574,2.574a2.427,2.427,0,0,0,3.416,0l.5-.5.3.3a4.337,4.337,0,0,0,6.129,0l2.565-2.566a2.335,2.335,0,0,1,3.3,3.3l-2.566,2.574a4.34,4.34,0,0,0,0,6.129,1,1,0,1,0,1.422-1.414,2.326,2.326,0,0,1,0-3.3l2.565-2.574a4.333,4.333,0,0,0-6.128-6.129l-2.566,2.566a2.342,2.342,0,0,1-3.3,0l-.3-.3.5-.5a2.387,2.387,0,0,0,.7-1.707,2.423,2.423,0,0,0-.7-1.708l-2.574-2.574A9.181,9.181,0,0,0,2111.636,2194.963Zm-11.522,11.529-4.51-4.51,10.108-10.108,4.5,4.5a7.147,7.147,0,0,1-10.1,10.116Zm14.888,1.79a.411.411,0,0,1,.123.286.388.388,0,0,1-.123.286l-2.41,2.41a.4.4,0,0,1-.58,0l-2.051-2.043a8.9,8.9,0,0,0,2.99-2.99Z" transform="translate(-2089.5 -2185.778)" fill="#0055a4"/>
</svg>
