<svg xmlns="http://www.w3.org/2000/svg" xmlns:xlink="http://www.w3.org/1999/xlink" width="100" height="100" viewBox="0 0 100 100">
  <defs>
    <filter id="Ellipse_1" x="0" y="0" width="100" height="100" filterUnits="userSpaceOnUse">
      <feOffset dy="3" input="SourceAlpha"/>
      <feGaussianBlur stdDeviation="7.5" result="blur"/>
      <feFlood flood-opacity="0.251"/>
      <feComposite operator="in" in2="blur"/>
      <feComposite in="SourceGraphic"/>
    </filter>
  </defs>
  <g id="Group_1619" data-name="Group 1619" transform="translate(-1182.823 -505.823)">
    <g id="Group_1410" data-name="Group 1410" transform="translate(1205 525)">
      <g transform="matrix(1, 0, 0, 1, -22.18, -19.18)" filter="url(#Ellipse_1)">
        <circle id="Ellipse_1-2" data-name="Ellipse 1" cx="27.5" cy="27.5" r="27.5" transform="translate(22.5 19.5)" fill="#00adee"/>
      </g>
      <g id="phone-24px" transform="translate(15.323 15.323)">
        <path id="Path_6195" data-name="Path 6195" d="M0,0H24V24H0Z" fill="none"/>
        <path id="Path_6196" data-name="Path 6196" d="M6.62,10.79a15.149,15.149,0,0,0,6.59,6.59l2.2-2.2a.994.994,0,0,1,1.02-.24,11.407,11.407,0,0,0,3.57.57,1,1,0,0,1,1,1V20a1,1,0,0,1-1,1A17,17,0,0,1,3,4,1,1,0,0,1,4,3H7.5a1,1,0,0,1,1,1,11.36,11.36,0,0,0,.57,3.57,1,1,0,0,1-.25,1.02Z" fill="#fff"/>
      </g>
    </g>
  </g>
</svg>
