<svg xmlns="http://www.w3.org/2000/svg" xmlns:xlink="http://www.w3.org/1999/xlink" width="512" height="512" viewBox="0 0 512 512">
  <defs>
    <clipPath id="clip-Artboard_1">
      <rect width="512" height="512"/>
    </clipPath>
  </defs>
  <g id="Artboard_1" data-name="Artboard – 1" clip-path="url(#clip-Artboard_1)">
    <g id="completed">
      <path id="Path_1" data-name="Path 1" d="M50,451.992a10,10,0,0,0-10,10V462a10,10,0,1,0,10-10.008Zm0,0" fill="#fff"/>
      <path id="Path_2" data-name="Path 2" d="M502,0H422a10,10,0,0,0-10,10V20.438l-13.344-.082h-.062a10,10,0,0,0-.062,20L412,40.438v103.75c-26.184,16.492-49.816,7-74.762-3.051C320.8,134.516,303.8,127.672,286.832,129.8c-5.352.672-19.8,2.77-35.086,4.988-14.488,2.1-29.473,4.277-34.625,4.926a9.918,9.918,0,0,1-7.359-2.055,10.207,10.207,0,0,1-3.887-6.836c-.219-1.77-.8-6.477,11.73-12.293,26.527-12.3,54.8-22.832,77.563-28.891a10,10,0,0,0-5.145-19.328c-23.836,6.344-53.3,17.309-80.832,30.078-9.578,4.441-15.465,9.609-18.934,14.82L90,142.551C79.453,145.2,74.043,141,72.492,136.188c-1.523-4.742.316-10.855,7.859-13.832,7.848-2.988,26.578-11.234,50.281-21.664,31.414-13.824,70.5-31.031,101.676-43.676,37.043-15.027,48.332-17.293,86.258-17.156h.031a10,10,0,0,0,.027-20c-40.453-.137-54.488,2.664-93.832,18.625-31.445,12.754-70.684,30.023-102.215,43.9-22.566,9.934-42.059,18.512-49.395,21.3l-.094.035c-18.684,7.328-24.02,24.961-19.637,38.59C57.77,155.738,72.613,167.6,95,161.918c.059-.016.113-.027.172-.047L186.7,136.914a30.18,30.18,0,0,0,32.914,22.645c5.344-.672,19.75-2.766,35-4.977,14.527-2.109,29.543-4.289,34.707-4.937,11.816-1.484,25.723,4.113,40.441,10.043,15.6,6.281,33.367,13.441,52.6,13.438a72.1,72.1,0,0,0,29.637-6.3V170a10,10,0,0,0,10,10h80a10,10,0,0,0,10-10V10A10,10,0,0,0,502,0ZM492,160H432V20h60Zm0,0" fill="#fff"/>
      <path id="Path_3" data-name="Path 3" d="M462,60.008a10,10,0,0,0,10-10V50a10,10,0,1,0-10,10.008Zm0,0" fill="#fff"/>
      <path id="Path_4" data-name="Path 4" d="M186,326a69.956,69.956,0,0,0,57.395-30H280.34a10,10,0,0,0,7.07-2.93L304.48,276H316.2l17.07,17.07a10,10,0,0,0,7.07,2.93H356a10,10,0,0,0,7.07-2.93l30-30A10,10,0,0,0,396,256V226a10,10,0,0,0-10-10H243.4A69.984,69.984,0,1,0,186,326Zm190-90v15.859L351.859,276h-7.375L327.41,258.93a10,10,0,0,0-7.07-2.93h-20a10,10,0,0,0-7.07,2.93L276.2,276H253.074a69.821,69.821,0,0,0,0-40ZM186,206a50,50,0,1,1-50,50A50.056,50.056,0,0,1,186,206Zm0,0" fill="#fff"/>
      <path id="Path_5" data-name="Path 5" d="M166,266a10,10,0,1,0-10-10V256A10,10,0,0,0,166,266Zm0,0" fill="#fff"/>
      <path id="Path_6" data-name="Path 6" d="M358.594,40.105h0a10,10,0,1,0-10-10A10,10,0,0,0,358.6,40.105Zm0,0" fill="#fff"/>
      <path id="Path_7" data-name="Path 7" d="M417,350.082c-.059.016-.113.027-.172.047L325.3,375.086a30.18,30.18,0,0,0-32.914-22.645c-5.344.672-19.75,2.766-35,4.977-14.527,2.109-29.543,4.289-34.707,4.938-11.812,1.48-25.723-4.113-40.441-10.043-23.344-9.4-51.559-20.758-82.234-7.152V342a10,10,0,0,0-10-10H10A10,10,0,0,0,0,342V502a10,10,0,0,0,10,10H90a10,10,0,0,0,10-10V491.563l13.344.082h.063a10,10,0,0,0,.063-20L100,471.563V367.813c26.184-16.492,49.816-7,74.762,3.047,16.441,6.625,33.449,13.469,50.406,11.336,5.355-.672,19.8-2.766,35.086-4.984,14.488-2.105,29.473-4.277,34.625-4.926a9.9,9.9,0,0,1,7.359,2.055,10.192,10.192,0,0,1,3.887,6.836c.219,1.77.8,6.477-11.73,12.289-26.527,12.3-54.793,22.836-77.559,28.895a10,10,0,1,0,5.141,19.328c23.836-6.344,53.3-17.309,80.836-30.078,9.574-4.441,15.461-9.609,18.934-14.82L422,369.449c10.543-2.656,15.957,1.547,17.508,6.363,1.523,4.742-.316,10.855-7.855,13.832-7.844,2.988-26.582,11.234-50.289,21.668-31.41,13.824-70.5,31.027-101.672,43.672-37.043,15.027-48.355,17.3-86.258,17.156H193.4a10,10,0,0,0-.027,20q1.225.006,2.418,0c38.617,0,52.867-2.988,91.414-18.629,31.441-12.754,70.684-30.023,102.211-43.9,22.57-9.934,42.063-18.512,49.395-21.3l.1-.035c18.684-7.328,24.02-24.961,19.637-38.59C454.23,356.266,439.387,344.4,417,350.082ZM20,492V352H80V492Zm0,0" fill="#fff"/>
      <path id="Path_8" data-name="Path 8" d="M153.41,471.895H153.4a10,10,0,1,0,.008,0Zm0,0" fill="#fff"/>
    </g>
  </g>
</svg>
