<svg id="Layer_1" data-name="Layer 1" xmlns="http://www.w3.org/2000/svg" viewBox="0 0 1257.1 1558.37"><defs><style>.cls-1,.cls-2{fill:#1f4396;}.cls-2{font-size:344.83px;font-family:DeepDownRegular, Deep Down;}</style></defs><path class="cls-1" d="M859.71,654.46H653.51V860.29c0,113.62,92.28,205.82,206,205.82h206.2V860.29C1065.73,746.65,973.45,654.46,859.71,654.46Z"/><path class="cls-1" d="M653.6,389.71l.15,206,206-.15c113.73-.08,206-92.34,205.87-206l-.15-206-206,.15C745.74,183.82,653.52,276.08,653.6,389.71Z"/><path class="cls-1" d="M389,595.15h206.2V389.33c0-113.63-92.28-205.83-206-205.83H183V389.33C183,503,275.23,595.15,389,595.15Z"/><path class="cls-1" d="M595.08,859.9l-.15-206-206,.15c-113.74.08-206,92.34-205.88,206l.15,206,206-.15C503,1065.79,595.16,973.53,595.08,859.9Z"/><text class="cls-2" transform="translate(168.54 1373.16)">BDRF</text></svg>