<svg id="Layer_1" data-name="Layer 1" xmlns="http://www.w3.org/2000/svg" viewBox="0 0 1257.1 1558.37"><defs><style>.cls-1{fill:#1f4396;}</style></defs><path class="cls-1" d="M888.1,659.46H681.9V865.29c0,113.62,92.28,205.82,206,205.82h206.2V865.29C1094.12,751.65,1001.84,659.46,888.1,659.46Z"/><path class="cls-1" d="M682,394.71l.15,206,206-.15c113.73-.08,205.95-92.34,205.87-206l-.14-206-206,.15C774.13,188.82,681.91,281.08,682,394.71Z"/><path class="cls-1" d="M417.36,600.15h206.2V394.33c0-113.63-92.28-205.83-206-205.83H211.34V394.33C211.34,508,303.62,600.15,417.36,600.15Z"/><path class="cls-1" d="M623.47,864.9l-.14-206-206,.15c-113.74.08-206,92.34-205.88,206l.15,206,206-.15C531.34,1070.79,623.55,978.53,623.47,864.9Z"/></svg>