<svg xmlns="http://www.w3.org/2000/svg" width="30.86" height="30.67" viewBox="0 0 30.86 30.67">
  <g id="globe" transform="translate(729.2 -1216.4)">
    <g id="Group_1476" data-name="Group 1476" transform="translate(-729.2 1216.4)">
      <path id="Path_836" data-name="Path 836" d="M-693.894,1226.685l.063.253-.379.063v.443h.379l.569-.063.253-.316-.316-.126-.127-.19-.253-.379-.126-.569-.443.126-.126.19v.19l.19.19Z" transform="translate(716.407 -1219.856)" fill="#292929"/>
      <path id="Path_837" data-name="Path 837" d="M-694.715,1227.243v-.316l-.253-.126-.379.126-.253.443v.253h.316Z" transform="translate(716.848 -1220.223)" fill="#292929"/>
      <path id="Path_838" data-name="Path 838" d="M-706.757,1229.463l-.063.19h-.379v.19h.126v.126h.253l.126-.126.063-.19h.19l.063-.19-.19-.063Z" transform="translate(721.112 -1221.179)" fill="#292929"/>
      <path id="Path_839" data-name="Path 839" d="M-708.2,1230.026v.253l.253-.063.063-.19-.19-.126Z" transform="translate(721.48 -1221.363)" fill="#292929"/>
      <path id="Path_840" data-name="Path 840" d="M-698.34,1231.577a9.339,9.339,0,0,0-.063-1.328,15.5,15.5,0,0,0-1.012-4.174c-.063-.126-.063-.19-.126-.316a14.938,14.938,0,0,0-2.909-4.427l-.253-.253-.7-.7a15.441,15.441,0,0,0-10.371-3.984,15.471,15.471,0,0,0-10.434,4.047,16.956,16.956,0,0,0-1.771,1.9,15.247,15.247,0,0,0-3.225,9.359,15.383,15.383,0,0,0,15.367,15.367,15.321,15.321,0,0,0,13.659-8.411,15.771,15.771,0,0,0,1.265-3.415c.063-.316.126-.632.19-.885a18.887,18.887,0,0,0,.253-2.719C-698.34,1231.7-698.34,1231.64-698.34,1231.577Zm-2.909-6.134.063-.126a3.387,3.387,0,0,1,.316.7H-701l-.253.063Zm-2.213-2.656v-.7a4.358,4.358,0,0,1,.7.822l-.253.443h-.949l-.063-.19Zm-18.529-1.707h.316v-.126h.506v.19l-.126.19h-.7v-.253Zm.506.7.316-.063v.316l-.7.063-.127-.19Zm21.248,6.071h-1.138l-.7-.506-.7.063v.443h-.253l-.253-.19-1.265-.316v-.822l-1.581.126-.506.253h-.949l-.759.443v.822l-1.581,1.138.126.506h.316l-.063.443-.253.063v1.2l1.328,1.518h.569l.063-.063h1.075l.316-.253h.569l.316.316.885.063-.126,1.2,1.012,1.771-.506,1.012.063.443.379.379v1.138l.569.7v.949h.443a14.147,14.147,0,0,1-10.94,5.249,14.115,14.115,0,0,1-14.1-14.1,13.392,13.392,0,0,1,1.138-5.5v-.443l.506-.632.569-.949v.253l-.569.7a5.6,5.6,0,0,0-.506,1.075v.822l.569.253v1.138l.569.949.443.063.063-.316-.569-.822-.126-.822h.316l.126.822.759,1.138-.19.379.506.759,1.2.316v-.19l.506.063-.063.379.379.063.569.19.822.949,1.075.063.126.885-.759.506-.063.759-.127.506,1.075,1.328.063.443a4.031,4.031,0,0,0,.443.126,10.729,10.729,0,0,1,.885.632v2.4l.316.063-.19,1.138.506.632-.063,1.075.632,1.138.822.759h.822l.063-.253-.632-.506.063-.253.127-.316v-.316h-.443l-.19-.253.316-.316.063-.253-.379-.126v-.253l.569-.063.822-.379.253-.506.885-1.138-.19-.885.253-.443h.822l.569-.443.19-1.707.632-.759.126-.506-.569-.19-.379-.569h-1.265l-1.012-.379-.063-.7-.316-.569h-.885l-.506-.822-.443-.253v.253l-.822.063-.316-.443-.885-.19-.7.822-1.138-.19-.063-1.265-.822-.126.316-.632-.063-.379-1.075.7-.7-.063-.253-.506.126-.569.379-.7.885-.443h1.644v.506l.569.253-.063-.885.443-.443.885-.569.063-.379.885-.885.949-.506-.063-.063.632-.569.253.063.127.126.253-.253h.063l-.253-.063-.253-.063v-.253l.126-.126h.316l.126.063.127.253h.19l.443-.063.063-.19.253.063v.253l-.253.126h0l.063.253.759.253h.19v-.316l-.632-.253-.063-.19.506-.19v-.506l-.569-.316-.063-.822-.759.379h-.253l.063-.632-1.012-.253-.443.316v.949l-.759.253-.316.632-.316.063v-.822l-.7-.126-.379-.253-.126-.506,1.265-.759.632-.19.063.443h.316v-.19l.379-.063v-.063l-.126-.063-.063-.19.443-.063.253-.253h0l.063-.063.948-.126.379.379-1.075.569,1.391.316.19-.443h.569l.19-.38-.443-.126v-.506l-1.328-.569-.885.126-.506.253.063.632-.569-.063-.063-.379.506-.443-.949-.063-.253.063-.126.316.379.063-.063.379-.569.063-.063.253h-.885s0-.506-.063-.506h.7l.506-.506-.253-.126-.379.38-.632-.063-.379-.506h-.822l-.822.632h.759l.063.253-.19.19h.822l.126.316-.949-.063-.063-.253-.569-.126-.316-.19h-.7a13.977,13.977,0,0,1,8.284-2.719,13.914,13.914,0,0,1,9.3,3.541l-.19.316-.632.253-.253.316.063.316.316.063.19.506.569-.253.127.7h-.19l-.506-.063-.506.063-.506.7-.759.126-.126.632.316.063-.063.379-.7-.126-.7.126-.126.379.126.759.379.19h.632l.443-.063.126-.379.7-.885.443.063.443-.379.063.316,1.075.759-.126.19h-.506l.19.253.316.063.379-.126v-.443l.19-.063-.126-.126-.759-.379-.19-.569h.632l.19.19.506.443v.569l.569.569.19-.822.379-.19.063.632.379.379h.759l.379,1.138Zm-20.426-4.49.379-.19.316.063-.127.443-.379.126Zm1.96,1.075v.316h-.822l-.316-.063.063-.19.379-.19h.569v.19h.127Zm.379.379v.253l-.19.126-.253.063v-.443Zm-.253-.126v-.316l.316.253Zm.127.7v.253l-.19.19h-.443l.063-.316h.19l.063-.126Zm-1.138-.569h.443l-.569.822-.253-.126.063-.38Zm1.96.506v.253h-.443l-.126-.19v-.253h.063Zm-.443-.379.126-.126.19.126-.19.126Zm18.086,3.6h0c.063,0,.063.126.126.19Z" transform="translate(729.2 -1216.4)" fill="#292929"/>
      <path id="Path_841" data-name="Path 841" d="M-725.2,1230.932v.443a8.24,8.24,0,0,1,.506-1.075Z" transform="translate(727.729 -1221.51)" fill="#292929"/>
    </g>
  </g>
</svg>
