<svg xmlns="http://www.w3.org/2000/svg" width="20" height="29.541" viewBox="0 0 20 29.541">
  <g id="location_2" transform="translate(0.026)">
    <path id="Path_829" data-name="Path 829" d="M8.658,0h2.657a1.616,1.616,0,0,0,.34.133,9.863,9.863,0,0,1,8.208,11.19A19.056,19.056,0,0,1,18.579,15.6a63.911,63.911,0,0,1-8.09,13.316c-.133.192-.236.413-.354.62h-.3a4.158,4.158,0,0,0-.31-.561c-.871-1.225-1.786-2.406-2.628-3.646A49.054,49.054,0,0,1,.465,13.124,10.022,10.022,0,0,1,6.414.65,23.008,23.008,0,0,1,8.658,0Zm1.373,5.138a4.843,4.843,0,0,0-4.916,4.8,4.88,4.88,0,1,0,4.916-4.8Z" transform="translate(0)" fill="#292929"/>
  </g>
</svg>
