<svg xmlns="http://www.w3.org/2000/svg" width="152" height="63" viewBox="0 0 152 63"><g transform="translate(12449 7856)"><rect width="152" height="63" transform="translate(-12449 -7856)" fill="#fff" opacity="0"/><g transform="translate(-12610.289 -8451.369)"><g transform="translate(162.289 642.991)"><g transform="translate(0 0)"><path d="M162.289,715.033h6.2a5.812,5.812,0,0,1,4.152,1.454,3.891,3.891,0,0,1,1.117,2.74v.042c0,2.466-1.834,3.879-4.321,4.216l4.869,6.3h-1.391l-4.7-6.113h-4.827v6.113h-1.1Zm6.07,7.651c2.466,0,4.3-1.244,4.3-3.372v-.042c0-1.981-1.559-3.225-4.237-3.225h-5.037v6.639Z" transform="translate(-162.289 -714.822)" fill="#fff"/><path d="M277.406,715.033h1.1v13.743h8.663v1.012h-9.759Z" transform="translate(-231.39 -714.822)" fill="#fff"/><path d="M325.867,715.033h10.5v1.012h-9.4v5.8h9.4v1.012h-9.4v5.923h9.4v1.012h-10.5Z" transform="translate(-260.48 -714.822)" fill="#fff"/><path d="M200.415,715.033h10.5v1.012h-9.4v5.8h9.4v1.012h-9.4v5.923h9.4v1.012h-10.5Z" transform="translate(-185.175 -714.822)" fill="#fff"/><path d="M358.826,727.32l.717-.822a7.163,7.163,0,0,0,5.29,2.192c2.213,0,3.731-1.244,3.731-2.93v-.042c0-1.56-.822-2.466-4.173-3.141-3.541-.717-4.974-1.918-4.974-4.152v-.042c0-2.192,2-3.879,4.742-3.879a7.355,7.355,0,0,1,5.059,1.792l-.7.864a6.353,6.353,0,0,0-4.405-1.665c-2.171,0-3.6,1.244-3.6,2.782v.042c0,1.56.8,2.508,4.3,3.225,3.414.7,4.848,1.918,4.848,4.068v.042c0,2.382-2.045,4.026-4.89,4.026A8.4,8.4,0,0,1,358.826,727.32Z" transform="translate(-280.264 -714.505)" fill="#fff"/><path d="M396.664,716.045h-5.143v-1.012H402.9v1.012H397.76v13.743h-1.1Z" transform="translate(-299.89 -714.822)" fill="#fff"/><path d="M427.29,714.769h1.054l6.871,14.86h-1.2l-1.876-4.131h-8.7l-1.876,4.131h-1.138Zm4.384,9.738-3.878-8.536-3.9,8.536Z" transform="translate(-317.237 -714.663)" fill="#fff"/><path d="M241.074,714.769h1.054L249,729.629h-1.2l-1.876-4.131h-8.705l-1.876,4.131H234.2Zm4.384,9.738-3.878-8.536-3.9,8.536Z" transform="translate(-205.457 -714.663)" fill="#fff"/><path d="M463,716.045H457.86v-1.012h11.382v1.012H464.1v13.743H463Z" transform="translate(-339.712 -714.822)" fill="#fff"/><path d="M494.669,715.033h10.5v1.012h-9.4v5.8h9.4v1.012h-9.4v5.923h9.4v1.012h-10.5Z" transform="translate(-361.807 -714.822)" fill="#fff"/></g></g><g transform="translate(162.289 595.369)"><g transform="translate(145.392)"><path d="M528.82,600.863a2.748,2.748,0,1,1,2.8-2.747A2.78,2.78,0,0,1,528.82,600.863Zm0-5.08a2.331,2.331,0,1,0,2.379,2.332A2.359,2.359,0,0,0,528.82,595.783Z" transform="translate(-526.016 -595.369)" fill="#fff"/><g transform="translate(1.772 1.241)"><path d="M532.991,601.486h-.531l-1.029-1.2h-.574v1.2h-.408v-3.012h.859a2.548,2.548,0,0,1,.468.034,1.07,1.07,0,0,1,.332.126.769.769,0,0,1,.262.261.758.758,0,0,1,.093.4.866.866,0,0,1-.169.544.993.993,0,0,1-.458.331Zm-.956-2.165a.508.508,0,0,0-.046-.23.407.407,0,0,0-.153-.171.562.562,0,0,0-.212-.08,1.362,1.362,0,0,0-.285-.024h-.481v1.136h.415a1.665,1.665,0,0,0,.338-.031.588.588,0,0,0,.245-.126.551.551,0,0,0,.136-.2A.751.751,0,0,0,532.035,599.321Z" transform="translate(-530.449 -598.474)" fill="#fff"/></g></g><path d="M162.29,634.91v-35.7a3.461,3.461,0,0,1,3.461-3.461h18.92V604H171.3v8.253H182.93v7.8H171.3v10.069h13.372v8.252h-18.92A3.461,3.461,0,0,1,162.29,634.91Z" transform="translate(-162.29 -595.596)" fill="#fff"/><path d="M243.625,595.747H227.24v42.624h16.385a7.614,7.614,0,0,0,7.614-7.615v-27.4A7.614,7.614,0,0,0,243.625,595.747Zm-3.975,34.372h-3.59V604h3.59a2.769,2.769,0,0,1,2.769,2.768V627.35A2.769,2.769,0,0,1,239.651,630.119Z" transform="translate(-201.278 -595.596)" fill="#fff"/><path d="M342.454,610.678a4.153,4.153,0,0,1-1.708-3.357v-1.157a2.393,2.393,0,0,1,2.393-2.393h.072a2.4,2.4,0,0,1,2.394,2.395v2.078h8.877v-5.077a7.8,7.8,0,0,0-7.8-7.8h-6.8a7.8,7.8,0,0,0-7.8,7.8v6.478a9.216,9.216,0,0,0,4.081,7.654l6.679,4.482c1.518.976,2.823,2,2.833,3.3,0,.305,0,1.773.006,2.419a2.39,2.39,0,0,1-2.39,2.395h0a2.389,2.389,0,0,1-2.389-2.39v-3.458h-8.82v6.191a7.8,7.8,0,0,0,7.8,7.8h6.8a7.8,7.8,0,0,0,7.8-7.8v-6.3a9.882,9.882,0,0,0-4.44-8.248Z" transform="translate(-264.215 -595.369)" fill="#fff"/><path d="M489.013,596.149v-.78H478.641v18.965l-5.148-18.965h-8.9v42.664h8.9V619.009l5.451,19.135h4.893a3.738,3.738,0,0,0,3.738-3.738V597.587a1.438,1.438,0,0,1,1.438-1.438Z" transform="translate(-343.756 -595.369)" fill="#fff"/><path d="M420.48,627.3V606.823A11.076,11.076,0,0,0,409.4,595.747h-1.262a11.076,11.076,0,0,0-11.076,11.076V627.3a11.075,11.075,0,0,0,11.076,11.075H409.4A11.075,11.075,0,0,0,420.48,627.3Zm-14.593-.063V606.885A2.886,2.886,0,0,1,408.773,604h0a2.886,2.886,0,0,1,2.886,2.886v20.348a2.886,2.886,0,0,1-2.886,2.886h0A2.886,2.886,0,0,1,405.887,627.233Z" transform="translate(-303.22 -595.596)" fill="#fff"/><g transform="translate(53.543 0.151)"><path d="M296.238,595.747v12.415l10.75-8.327v-4.088Z" transform="translate(-296.238 -595.747)" fill="#fff"/><path d="M296.238,626.573v25.213h10.75V618.094Z" transform="translate(-296.238 -609.162)" fill="#fff"/></g></g></g></g></svg>