<svg id="Group_1634" data-name="Group 1634" xmlns="http://www.w3.org/2000/svg" width="151.703" height="63" viewBox="0 0 151.703 63">
  <g id="Group_1630" data-name="Group 1630">
    <g id="Group_1629" data-name="Group 1629">
      <g id="Group_1628" data-name="Group 1628">
        <path id="Path_1128" data-name="Path 1128" d="M0,39.571V3.266A3.253,3.253,0,0,1,2.962.152H21.343V8.279H9.038v8.43H19.6v7.824H9.038v10.1H21.343v8.279H3.038A3.607,3.607,0,0,1,0,39.571Z" fill="#003e92"/>
        <path id="Path_1129" data-name="Path 1129" d="M38.963.152H24.722V42.913h13.9s8.658.456,8.658-7.975V7.823S47.394,1.367,38.963.152Zm-2.05,35.479H33.571V7.215h4.481a2.353,2.353,0,0,1,1.9,2.963V31.9C40.179,35.849,36.913,35.631,36.913,35.631Z" fill="#003e92"/>
        <path id="Path_1130" data-name="Path 1130" d="M52.1.152V12.608L62.888,4.253V.152Z" fill="#003e92"/>
        <path id="Path_1131" data-name="Path 1131" d="M52.1,17.621v25.3H62.888V9.114Z" fill="#003e92"/>
        <path id="Path_1132" data-name="Path 1132" d="M79.9,12.917H88.94v-5.2s.228-6.5-7.823-7.719H76.408S67.6.229,67.749,9.019v4.968s.076,4.051,2.659,6.191,9.266,7.261,9.266,7.261a3.185,3.185,0,0,1,1.139,2.369c.076,1.6.152,4.423.152,4.423s-.38,1.758-1.9,1.835-2.108-.765-2.222-2.255v-5.8H67.586v7.394s.657,6.705,9.145,7.4h5.012s8.431-.344,8.659-8.942v-4.93s.285-5.751-2.962-7.853l-9.057-6.688A4.022,4.022,0,0,1,76.892,11.9a6.586,6.586,0,0,1,0-2.885s-.275-2.331,1.6-2.331c1.718,0,1.538,1.146,1.538,1.834S79.9,12.917,79.9,12.917Z" fill="#003e92"/>
        <path id="Path_1133" data-name="Path 1133" d="M102.412,21.665" fill="#003e92"/>
        <path id="Path_1134" data-name="Path 1134" d="M116.605,21.535V9.988S117,0,105.44,0,93.763,10.045,93.763,10.045V32.756S93.877,42.8,105.44,42.8s11.165-9.988,11.165-9.988Zm-8.2.13v12.04c-.117.626-.233,2.677-3.28,2.62s-2.826-2.62-2.826-2.62V9.361s-.221-2.563,2.826-2.62,3.163,1.993,3.28,2.62Z" fill="#003e92"/>
        <path id="Path_1135" data-name="Path 1135" d="M121.447,0V42.8h8.6V23.716h.323l5.468,19.2h6.076s2.469-.342,2.583-3.57V2.772s.38-2.126,1.443-2.278V0H135.916V19.026h-.38L129.84,0Z" fill="#003e92"/>
        <g id="Group_1627" data-name="Group 1627">
          <g id="Group_1625" data-name="Group 1625">
            <path id="Path_1136" data-name="Path 1136" d="M148.89,5.9a2.789,2.789,0,0,1-2.813-2.756,2.814,2.814,0,0,1,5.626,0A2.789,2.789,0,0,1,148.89,5.9Zm0-5.1A2.367,2.367,0,0,0,146.5,3.14a2.388,2.388,0,0,0,4.774,0A2.367,2.367,0,0,0,148.89.8Z" fill="#003e92"/>
          </g>
          <g id="Group_1626" data-name="Group 1626">
            <path id="Path_1137" data-name="Path 1137" d="M150.4,4.651h-.533l-1.032-1.2h-.576v1.2h-.409V1.629h.862a2.465,2.465,0,0,1,.469.035,1.05,1.05,0,0,1,.334.126.772.772,0,0,1,.262.262.756.756,0,0,1,.094.4.867.867,0,0,1-.17.545,1,1,0,0,1-.46.333Zm-.959-2.172a.51.51,0,0,0-.046-.231.4.4,0,0,0-.154-.171A.548.548,0,0,0,149.033,2a1.334,1.334,0,0,0-.286-.024h-.483v1.14h.417a1.655,1.655,0,0,0,.339-.032.582.582,0,0,0,.246-.126.544.544,0,0,0,.137-.2A.751.751,0,0,0,149.446,2.479Z" fill="#003e92"/>
          </g>
        </g>
      </g>
    </g>
  </g>
  <g id="Group_1633" data-name="Group 1633">
    <g id="Group_1632" data-name="Group 1632">
      <g id="Group_1631" data-name="Group 1631">
        <path id="Path_1138" data-name="Path 1138" d="M.218,47.987H6.434A5.831,5.831,0,0,1,10.6,49.446a3.905,3.905,0,0,1,1.121,2.749v.042c0,2.474-1.84,3.891-4.335,4.229l4.884,6.322h-1.4L6.159,56.656H1.317v6.132H.218Zm6.089,7.675c2.474,0,4.314-1.247,4.314-3.383v-.042c0-1.988-1.565-3.235-4.25-3.235H1.317v6.66Z" fill="#fff"/>
        <path id="Path_1139" data-name="Path 1139" d="M15.507,47.987h10.53V49H16.606v5.815h8.479v1.015H16.606v5.942h9.537v1.014H15.507Z" fill="#fff"/>
        <path id="Path_1140" data-name="Path 1140" d="M46.381,47.987h1.1V61.774h8.69v1.014h-9.79Z" fill="#fff"/>
        <path id="Path_1141" data-name="Path 1141" d="M65.815,47.987h10.53V49H66.914v5.815H73.3v1.015H66.914v5.942h9.537v1.014H65.815Z" fill="#fff"/>
        <path id="Path_1142" data-name="Path 1142" d="M79.031,60.632l.719-.825a7.19,7.19,0,0,0,5.308,2.2c2.22,0,3.742-1.247,3.742-2.939v-.042c0-1.565-.824-2.474-4.186-3.151-3.552-.719-4.99-1.924-4.99-4.166v-.042c0-2.2,2.008-3.891,4.757-3.891a7.375,7.375,0,0,1,5.075,1.8l-.7.867a6.367,6.367,0,0,0-4.419-1.671c-2.178,0-3.616,1.248-3.616,2.791V51.6c0,1.564.8,2.516,4.314,3.235,3.425.7,4.863,1.924,4.863,4.081v.042c0,2.39-2.051,4.039-4.906,4.039A8.43,8.43,0,0,1,79.031,60.632Z" fill="#fff"/>
        <path id="Path_1143" data-name="Path 1143" d="M97.3,49H92.143V47.987h11.418V49H98.4V62.788H97.3Z" fill="#fff"/>
        <path id="Path_1144" data-name="Path 1144" d="M110.624,47.881h1.058l6.893,14.907h-1.2l-1.882-4.144h-8.733l-1.882,4.144h-1.142Zm4.4,9.769-3.891-8.564L107.22,57.65Z" fill="#fff"/>
        <path id="Path_1145" data-name="Path 1145" d="M35.949,47.881h1.058L43.9,62.788H42.695l-1.882-4.144H32.08L30.2,62.788H29.056Zm4.4,9.769-3.891-8.564L32.545,57.65Z" fill="#fff"/>
        <path id="Path_1146" data-name="Path 1146" d="M123.9,49h-5.16V47.987h11.419V49H125V62.788h-1.1Z" fill="#fff"/>
        <path id="Path_1147" data-name="Path 1147" d="M133.506,47.987h10.53V49H134.6v5.815h6.389v1.015H134.6v5.942h9.537v1.014H133.506Z" fill="#fff"/>
      </g>
    </g>
  </g>
</svg>
