<svg xmlns="http://www.w3.org/2000/svg" width="41" height="41" viewBox="0 0 41 41">
  <g id="Group_1502" data-name="Group 1502" transform="translate(-1183.5 -566.534)">
    <path id="Path_850" data-name="Path 850" d="M20,0A20,20,0,1,1,0,20,20,20,0,0,1,20,0Z" transform="translate(1184 567.034)" fill="none" stroke="#e8e3e3" stroke-width="1"/>
    <path id="telephone66" d="M67.2,28.5q-.071-.212-.9-.625-.224-.13-.636-.354t-.748-.413q-.336-.188-.631-.365-.047-.035-.295-.206a3.306,3.306,0,0,0-.419-.253.769.769,0,0,0-.336-.082.978.978,0,0,0-.589.336,5.726,5.726,0,0,0-.648.731,7.108,7.108,0,0,1-.625.731.9.9,0,0,1-.542.336.8.8,0,0,1-.265-.059c-.106-.039-.186-.073-.242-.1s-.149-.082-.283-.165-.208-.128-.224-.136a11.681,11.681,0,0,1-4.82-4.82q-.012-.024-.136-.224t-.165-.283a2.556,2.556,0,0,1-.1-.242.8.8,0,0,1-.059-.265.9.9,0,0,1,.336-.542,7.1,7.1,0,0,1,.731-.625,5.735,5.735,0,0,0,.731-.648.978.978,0,0,0,.336-.589A.769.769,0,0,0,56.6,19.3a3.272,3.272,0,0,0-.253-.419q-.171-.248-.206-.295-.177-.294-.365-.63t-.413-.748q-.224-.412-.354-.636-.413-.825-.625-.9a.66.66,0,0,0-.248-.035,3.883,3.883,0,0,0-.831.118,4.673,4.673,0,0,0-.807.248,3.159,3.159,0,0,0-1.249,1.438,4.37,4.37,0,0,0-.56,2.811,5.091,5.091,0,0,0,.147.678q.106.377.171.56t.242.654q.177.472.212.577a10.678,10.678,0,0,0,.978,2.063,17.472,17.472,0,0,0,2.54,3.117,17.482,17.482,0,0,0,3.117,2.54,10.7,10.7,0,0,0,2.063.978q.106.035.577.212t.654.242q.182.065.56.171a5.128,5.128,0,0,0,.678.148,4.37,4.37,0,0,0,2.811-.56,3.16,3.16,0,0,0,1.438-1.25,4.651,4.651,0,0,0,.248-.807,3.881,3.881,0,0,0,.118-.831A.658.658,0,0,0,67.2,28.5Z" transform="translate(1145.412 563.417)" fill="#ebe6e6"/>
  </g>
</svg>
