<svg id="ongoing" xmlns="http://www.w3.org/2000/svg" width="512" height="512" viewBox="0 0 512 512">
  <path id="Path_1" data-name="Path 1" d="M12.667,235.39A10.671,10.671,0,0,1,2,224.723v-40C2,101.16,50.832,29.694,126.416,2.664a10.668,10.668,0,1,1,7.168,20.1C66.6,46.7,23.333,110.291,23.333,184.723v40A10.671,10.671,0,0,1,12.667,235.39Z" transform="translate(40.667 41.944)" fill="#fff"/>
  <path id="Path_2" data-name="Path 2" d="M136.581,150.537a10.613,10.613,0,0,1-10.368-8.235c-.9-3.8-1.856-7.4-2.859-10.88-7.765-26.923-18.688-44.416-43.285-69.376C60.911,42.633,43.119,30.878,20.591,22.772a10.682,10.682,0,0,1,7.253-20.1c25.707,9.28,45.867,22.549,67.413,44.373,27.115,27.5,39.829,48.021,48.6,78.464,1.088,3.8,2.133,7.723,3.115,11.9a10.655,10.655,0,0,1-7.936,12.821A9.888,9.888,0,0,1,136.581,150.537Z" transform="translate(275.152 42.167)" fill="#fff"/>
  <path id="Path_3" data-name="Path 3" d="M181.333,76H32a32,32,0,0,1,0-64H224a10.667,10.667,0,1,1,0,21.333H32a10.667,10.667,0,0,0,0,21.333H181.333a10.667,10.667,0,0,1,0,21.333Z" transform="translate(0 244)" fill="#fff"/>
  <path id="Path_4" data-name="Path 4" d="M146.167,149.333A10.671,10.671,0,0,1,135.5,138.667V53.333a32.039,32.039,0,0,0-32-32H60.833a32.039,32.039,0,0,0-32,32v85.333a10.667,10.667,0,0,1-21.333,0V53.333A53.38,53.38,0,0,1,60.833,0H103.5a53.38,53.38,0,0,1,53.333,53.333v85.333A10.671,10.671,0,0,1,146.167,149.333Z" transform="translate(152.5)" fill="#fff"/>
  <path id="Path_5" data-name="Path 5" d="M149.667,288.333C73.208,288.333,11,226.125,11,149.667S73.208,11,149.667,11,288.333,73.208,288.333,149.667,226.125,288.333,149.667,288.333Zm0-256A117.333,117.333,0,1,0,267,149.667,117.486,117.486,0,0,0,149.667,32.333Z" transform="translate(223.667 223.667)" fill="#fff"/>
  <path id="Path_6" data-name="Path 6" d="M67.338,121.663a10.743,10.743,0,0,1-7.552-3.115L17.12,75.881A10.665,10.665,0,0,1,32.2,60.8l34.6,34.6,67.157-76.757a10.658,10.658,0,0,1,16.043,14.037L75.338,118.015a10.7,10.7,0,0,1-7.659,3.648h-.341Z" transform="translate(284.662 305.004)" fill="#fff"/>
</svg>
