<svg xmlns="http://www.w3.org/2000/svg" width="24.901" height="24.902" viewBox="0 0 24.901 24.902">
  <path id="telephone66" d="M75.494,34.938q-.106-.318-1.344-.937-.335-.195-.954-.531t-1.123-.619q-.5-.283-.946-.548-.071-.053-.442-.31a4.961,4.961,0,0,0-.628-.38,1.153,1.153,0,0,0-.5-.124,1.467,1.467,0,0,0-.884.5,8.593,8.593,0,0,0-.972,1.1,10.665,10.665,0,0,1-.937,1.1,1.347,1.347,0,0,1-.814.5,1.2,1.2,0,0,1-.4-.088c-.159-.059-.28-.109-.363-.15s-.224-.124-.424-.248-.313-.192-.336-.2a18.571,18.571,0,0,1-4.156-3.077,18.571,18.571,0,0,1-3.077-4.156q-.018-.035-.2-.336t-.248-.425a3.837,3.837,0,0,1-.15-.363,1.2,1.2,0,0,1-.088-.4,1.348,1.348,0,0,1,.5-.814,10.661,10.661,0,0,1,1.1-.937,8.606,8.606,0,0,0,1.1-.973,1.468,1.468,0,0,0,.5-.884,1.154,1.154,0,0,0-.124-.5,4.909,4.909,0,0,0-.38-.628q-.257-.372-.31-.442-.265-.442-.548-.946T57.72,18q-.336-.619-.531-.955-.619-1.238-.937-1.344a.99.99,0,0,0-.371-.053,5.826,5.826,0,0,0-1.247.177,7.012,7.012,0,0,0-1.212.371,4.741,4.741,0,0,0-1.875,2.157,6.557,6.557,0,0,0-.84,4.218,7.638,7.638,0,0,0,.221,1.017q.159.566.256.84t.363.981q.265.708.318.867a16.024,16.024,0,0,0,1.468,3.1,26.218,26.218,0,0,0,3.811,4.678,26.233,26.233,0,0,0,4.678,3.811,16.049,16.049,0,0,0,3.1,1.468q.159.053.867.318t.981.363q.274.1.84.257a7.693,7.693,0,0,0,1.017.221,6.557,6.557,0,0,0,4.218-.84A4.742,4.742,0,0,0,75,37.768a6.978,6.978,0,0,0,.371-1.211,5.823,5.823,0,0,0,.177-1.247A.988.988,0,0,0,75.494,34.938Z" transform="translate(-50.646 -15.643)" fill="#292929"/>
</svg>
