<svg xmlns="http://www.w3.org/2000/svg" xmlns:xlink="http://www.w3.org/1999/xlink" width="512" height="512" viewBox="0 0 512 512">
  <defs>
    <clipPath id="clip-Artboard_1">
      <rect width="512" height="512"/>
    </clipPath>
  </defs>
  <g id="Artboard_1" data-name="Artboard – 1" clip-path="url(#clip-Artboard_1)">
    <g id="upcoming" transform="translate(0 0.18)">
      <g id="Group_2" data-name="Group 2">
        <g id="Group_1" data-name="Group 1">
          <path id="Path_1" data-name="Path 1" d="M453.034,361.322a7.514,7.514,0,0,0-8.19,1.628l-82.126,82.126a7.516,7.516,0,0,0,5.315,12.829h82.126a7.514,7.514,0,0,0,7.515-7.515V368.264A7.517,7.517,0,0,0,453.034,361.322Zm-66.861,81.554,56.469-56.469v56.469Z" fill="#fff"/>
        </g>
      </g>
      <g id="Group_4" data-name="Group 4">
        <g id="Group_3" data-name="Group 3">
          <path id="Path_2" data-name="Path 2" d="M507.361,240.867a7.514,7.514,0,0,0-8.19,1.628L476.664,265V111.971a7.515,7.515,0,0,0-7.515-7.515H411.408l20.96-20.96.009-.01,20.2-20.2a22.918,22.918,0,0,0,0-32.406L429.219,7.53a22.918,22.918,0,0,0-32.406,0L376.607,27.736,352.191,52.152l-52.3,52.3H66.62V30.11A7.515,7.515,0,0,0,59.105,22.6,59.174,59.174,0,0,0,0,81.7V400.888A7.533,7.533,0,0,0,.178,402.5a56.92,56.92,0,0,0,56.749,52.6H286.565l-43.249,43.249a7.515,7.515,0,0,0,5.314,12.829H504.485A7.515,7.515,0,0,0,512,503.663V247.81A7.517,7.517,0,0,0,507.361,240.867ZM407.443,18.159a7.892,7.892,0,0,1,11.149,0l23.355,23.355a7.893,7.893,0,0,1,0,11.15L427.056,67.556,392.55,33.051Zm-25.521,25.52,34.505,34.5L402.638,91.972l-34.5-34.5Zm115.05,288.573H483.107a7.515,7.515,0,1,0,0,15.03h13.865v22.646H483.107a7.515,7.515,0,1,0,0,15.03h13.865V407.6H483.107a7.515,7.515,0,1,0,0,15.03h13.865v22.646H483.107a7.515,7.515,0,1,0,0,15.03h13.865v35.842h-230.2l75.908-75.907a7.515,7.515,0,0,0-10.629-10.628l-30.456,30.456H56.928a41.66,41.66,0,0,1-41.862-40.545q.065-2.142.332-4.244l0-.024q.126-1,.3-1.985c.013-.075.027-.15.04-.225q.157-.881.352-1.753c.036-.162.074-.324.112-.485q.171-.738.369-1.468c.072-.264.147-.525.224-.788.11-.382.224-.763.345-1.14s.25-.75.381-1.123c.091-.261.181-.522.279-.781.183-.492.377-.979.577-1.462.057-.139.113-.28.172-.419.257-.6.524-1.193.806-1.779l.035-.075a44.24,44.24,0,0,1,30.75-24.047l.114-.025c.622-.127,1.25-.236,1.882-.337.1-.017.21-.038.317-.054.571-.087,1.148-.155,1.725-.22.162-.018.323-.043.486-.059.557-.056,1.119-.093,1.681-.128.178-.011.356-.03.534-.039q1.1-.055,2.223-.056A7.515,7.515,0,0,0,66.62,349.3V294.807a7.515,7.515,0,1,0-15.03,0v47.447a58.7,58.7,0,0,0-33.757,16.335c-.977.954-1.9,1.946-2.805,2.954V81.7A44.153,44.153,0,0,1,51.589,38.266V264.748h0a7.515,7.515,0,1,0,15.03,0h0V119.486h218.24L243.315,161.03a7.515,7.515,0,1,0,10.627,10.628l54.373-54.373s0,0,.005,0L357.505,68.1l34.5,34.505-4.048,4.048-.01.009L236.422,258.187l-34.5-34.5,29.868-29.868a7.515,7.515,0,0,0-10.627-10.628l-35.183,35.182a7.546,7.546,0,0,0-.529.591c-.055.068-.1.141-.156.212-.106.141-.21.283-.307.431-.055.086-.1.174-.157.263-.083.14-.163.282-.236.427-.048.094-.091.189-.135.287-.067.147-.129.3-.186.447-.02.053-.046.1-.065.156l-14.641,41.475-9.982,28.279a7.6,7.6,0,0,0-.3,1.143H134.292a7.515,7.515,0,0,0,0,15.03H342.406a7.515,7.515,0,0,0,0-15.03H193.093l45.83-16.178c.038-.014.074-.033.112-.047.178-.066.353-.14.526-.219.069-.032.138-.062.205-.1.18-.09.357-.189.531-.3.056-.034.114-.065.169-.1.181-.116.357-.243.53-.377.043-.033.088-.062.13-.1a7.544,7.544,0,0,0,.608-.543L396.378,119.487h65.255V280.033l-107.5,107.5a7.515,7.515,0,0,0,0,10.628,7.675,7.675,0,0,0,.571.516,7.51,7.51,0,0,0,10.057-.516l0,0,132.2-132.2ZM222.677,265.7l-21.526,7.6-14.342-14.342,7.6-21.526Z" fill="#fff"/>
        </g>
      </g>
    </g>
  </g>
</svg>
