<svg xmlns="http://www.w3.org/2000/svg" width="51.425" height="44.193" viewBox="0 0 51.425 44.193">
  <g id="Group_1879" data-name="Group 1879" transform="translate(-623.288 -1519.903)">
    <path id="Path_2012" data-name="Path 2012" d="M118.722,1523.83V1559.6s10.022,2.3,11.077-13.125c.264,1.148,0-12.962,0-12.962s-6.593.821-8.307-9.68C121.887,1523.009,118.722,1523.83,118.722,1523.83Z" transform="translate(524.074)" fill="#ffa64d"/>
    <g id="Group_1878" data-name="Group 1878">
      <path id="reliability" d="M50.58,20.908a2.99,2.99,0,0,0-1.421-.828,2.991,2.991,0,0,0,.456-1.708,3.067,3.067,0,0,0-3.065-2.9H40.583l-.006-8.939a3.515,3.515,0,1,0-7.031,0V8.894a4.269,4.269,0,0,1-.364,1.727A8.3,8.3,0,0,1,25.21,2.343V1.255A1.257,1.257,0,0,0,23.955,0H11A1.257,1.257,0,0,0,9.743,1.255v.854A8.3,8.3,0,0,1,1.457,10.4h-.2A1.257,1.257,0,0,0,0,11.651V26.717a17.479,17.479,0,0,0,33.344,7.332h10.5a2.593,2.593,0,0,0,1.839-.774,2.467,2.467,0,0,0,.507-2.741h.359a3.067,3.067,0,0,0,3.065-2.9,2.989,2.989,0,0,0-.464-1.72,3.053,3.053,0,0,0,2.272-2.8,2.99,2.99,0,0,0-.843-2.2Zm-33.1,21.778a15.988,15.988,0,0,1-15.97-15.97V11.9a9.8,9.8,0,0,0,9.743-9.793v-.6H23.7v.837a9.807,9.807,0,0,0,8.454,9.7,4.3,4.3,0,0,1-.588.451l-4.115,2.618a2.253,2.253,0,0,1-1.213.353h-.927a2.264,2.264,0,0,0-2.163-1.607H18.933a2.264,2.264,0,0,0-2.13,1.507h-3.7a1.961,1.961,0,0,0-1.959,1.959V30.282a1.961,1.961,0,0,0,1.959,1.959h3.566v7.411A12.923,12.923,0,0,1,4.52,26.767V14.285A10.293,10.293,0,0,0,14.036,4.47h2.637V11.1a.753.753,0,0,0,1.507,0V3.716a.753.753,0,0,0-.753-.753H13.292a.753.753,0,0,0-.753.753v.318a8.781,8.781,0,0,1-8.772,8.772.753.753,0,0,0-.753.753V26.767A14.429,14.429,0,0,0,17.426,41.18a.753.753,0,0,0,.753-.753V33.67a2.055,2.055,0,0,0,.552.077h4.419a2.257,2.257,0,0,0,1.808-.905l.8.455a5.785,5.785,0,0,0,2.848.751h3.057a15.96,15.96,0,0,1-14.191,8.638Zm-.8-11.952H13.108a.453.453,0,0,1-.452-.452V17.326a.453.453,0,0,1,.452-.452h3.566Zm31.685-6.227H42.486a.753.753,0,0,0,0,1.507H46.6a1.506,1.506,0,0,1,1.505,1.562,1.547,1.547,0,0,1-1.56,1.451H43.892l-.05,0-.05,0H42.486a.753.753,0,0,0,0,1.507h1.306l.05,0,.05,0a1.009,1.009,0,0,1,1,.985.973.973,0,0,1-.287.7,1.078,1.078,0,0,1-.763.323H28.61a4.275,4.275,0,0,1-2.1-.555l-1.094-.62v-1.7a.753.753,0,1,0-1.507,0v1.825a.754.754,0,0,1-.753.753H18.732a.553.553,0,0,1-.552-.552V16.12a.754.754,0,0,1,.753-.753h4.218a.754.754,0,0,1,.753.753V26.148a.753.753,0,0,0,1.507,0V16.974h.83a3.759,3.759,0,0,0,2.022-.589l4.116-2.619a5.748,5.748,0,0,0,2.675-4.872V6.529a2.009,2.009,0,1,1,4.018,0l.006,9.191a1.257,1.257,0,0,0,1.255,1.255H46.55a1.547,1.547,0,0,1,1.56,1.451A1.506,1.506,0,0,1,46.6,19.987H42.486a.753.753,0,0,0,0,1.507h5.926a1.506,1.506,0,0,1,1.505,1.562,1.547,1.547,0,0,1-1.56,1.451Zm0,0" transform="translate(623.287 1519.903)"/>
    </g>
  </g>
</svg>
