<svg xmlns="http://www.w3.org/2000/svg" width="68.615" height="62.493" viewBox="0 0 68.615 62.493">
  <g id="Group_1882" data-name="Group 1882" transform="translate(-116.694 -2347.507)">
    <path id="Path_2005" data-name="Path 2005" d="M132.131,2368.936l-26.786-5.754,3.563-14.437,22.564,17.157-13.327-26.678,20.189-3.034s-.66,29.816,0,29.188,11.348-30.444,11.348-30.444l12.667,10.566-13.987,18.622,25.6-7.847-3.827,12.659-24.015-2.2,16.23,7.009L141.5,2366.74l-14.647,12.973,5.278-10.776" transform="translate(11.35 12.572)" fill="#ffa64d"/>
    <g id="quality" transform="translate(121.952 2316.451)">
      <path id="Path_2000" data-name="Path 2000" d="M60.142,57.205,54.729,44.771a1.971,1.971,0,0,0-1.807-1.184H7.435a1.971,1.971,0,0,0-1.807,1.184L.215,57.206a2.634,2.634,0,0,0,.408,2.742L28.668,92.857a1.968,1.968,0,0,0,1.5.693h0a1.969,1.969,0,0,0,1.5-.692L41.1,81.8a.894.894,0,1,0-1.361-1.161L32.31,89.348,44.018,59.233H57.993L42.353,77.571a.894.894,0,0,0,1.361,1.161l16.02-18.784a2.633,2.633,0,0,0,.408-2.743Zm-1.847.239H45.163l8.219-11.287ZM20.275,69.106,28.243,89.6,2.364,59.233H16.436l2.456,6.318A.894.894,0,1,0,20.56,64.9l-2.2-5.67H42.1L30.227,89.768,21.942,68.458a.894.894,0,0,0-1.667.648ZM33.612,45.376l2.046,3.043a.894.894,0,1,0,1.484-1l-1.375-2.045H51.738l-8.3,11.4L39.3,50.635a.894.894,0,1,0-1.484,1l3.907,5.811h-23l8.115-12.068Zm-16.593,11.4-8.3-11.4H24.687ZM7.012,46.074l8.279,11.37H2.062Z"/>
      <path id="Path_2001" data-name="Path 2001" d="M62.545,384.227a1.5,1.5,0,0,0-1.448-.095l-4.627,2.159a1.514,1.514,0,0,0-.777,1.891c.881,2.358,2.887,3.634,5.961,3.794l.077,0a1.509,1.509,0,0,0,1.511-1.508V385.5A1.5,1.5,0,0,0,62.545,384.227Zm-1.091,5.943c-2.839-.235-3.68-1.641-3.988-2.369l3.988-1.861Z" transform="translate(-48.97 -299.811)"/>
      <path id="Path_2002" data-name="Path 2002" d="M39.039,304.526a1.5,1.5,0,0,0-.4-1.393l-3.606-3.614a1.514,1.514,0,0,0-2.042-.086c-1.917,1.632-2.433,3.953-1.536,6.9a1.511,1.511,0,0,0,1.957.979l4.674-1.694A1.5,1.5,0,0,0,39.039,304.526Zm-5.959,1c-.747-2.749.289-4.019.868-4.557l3.109,3.115Z" transform="translate(-27.324 -225.025)"/>
      <path id="Path_2003" data-name="Path 2003" d="M394.056,386.291l-4.627-2.159a1.508,1.508,0,0,0-2.145,1.366v4.971a1.509,1.509,0,0,0,1.511,1.508l.077,0c3.074-.159,5.08-1.435,5.961-3.794A1.514,1.514,0,0,0,394.056,386.291Zm-4.983,3.879V385.94l3.988,1.861C392.753,388.529,391.912,389.935,389.073,390.17Z" transform="translate(-341.102 -299.811)"/>
      <path id="Path_2004" data-name="Path 2004" d="M414.508,299.433a1.514,1.514,0,0,0-2.043.086l-3.606,3.614a1.508,1.508,0,0,0,.554,2.482l4.674,1.694a1.509,1.509,0,0,0,1.957-.979C416.941,303.386,416.425,301.065,414.508,299.433Zm-.094,6.093-3.977-1.441,3.109-3.115C414.125,301.507,415.161,302.776,414.414,305.526Z" transform="translate(-359.716 -225.025)"/>
    </g>
  </g>
</svg>
